#!OML:ASF G:\JayActor3\Patient Classification 1\Patient 1\Session 6\male.ASF
:FULLY-SPECIFIED
:DEGREES
2860
root -3.3945 16.7493 -3.22924 529.687 -82.4201 -521.49
lowerback 10.5964 -0.949388 1.5864
upperback 7.18342 -1.47473 -0.723921
thorax 1.48815 -0.815561 -1.50985
lowerneck 6.50483 4.29587 5.05616
upperneck 14.6045 6.12844 -7.93456
head 3.68748 2.76683 -3.19461
rclavicle -1.55052e-014 -2.78299e-014
rhumerus -10.6113 18.5984 -81.7582
rradius 69.8326
rwrist -1.93436
rhand -11.5057 -5.49088
rfingers 7.12502
rthumb 14.5333 -34.9618
lclavicle -1.55052e-014 -2.78299e-014
lhumerus 16.8229 -35.5984 67.2388
lradius 50.0815
lwrist 27.8686
lhand -10.672 9.60169
lfingers 7.12502
lthumb 15.3364 39.013
rfemur -20.4846 2.2542 10.6778
rtibia 27.402
rfoot -19.6998 -32.3996
rtoes 9.81642
lfemur -10.9236 6.51273 -10.1222
ltibia 13.5939
lfoot -5.22508 12.3299
ltoes -10.3634
2861
root -3.3772 16.7508 -3.22832 529.527 -82.4528 -521.332
lowerback 10.6518 -0.940332 1.53593
upperback 7.24863 -1.47184 -0.718848
thorax 1.5278 -0.817442 -1.4765
lowerneck 6.26611 4.42493 5.05929
upperneck 15.1384 6.29576 -7.87073
head 3.89823 2.83037 -3.16587
rclavicle -6.36111e-015 -8.34896e-015
rhumerus -9.95465 19.0439 -81.4794
rradius 70.267
rwrist -1.79006
rhand -11.5709 -5.41742
rfingers 7.12502
rthumb 14.4704 -34.8929
lclavicle -6.36111e-015 -8.34896e-015
lhumerus 17.6015 -35.8427 66.6821
lradius 50.3303
lwrist 27.9169
lhand -10.7665 9.59616
lfingers 7.12502
lthumb 15.2454 39.0144
rfemur -20.5069 2.25143 10.677
rtibia 27.3595
rfoot -19.5954 -32.4097
rtoes 9.77525
lfemur -11.0251 6.52179 -10.1157
ltibia 13.6317
lfoot -5.14377 12.2974
ltoes -10.4212
2862
root -3.36004 16.7518 -3.22796 529.331 -82.4929 -521.153
lowerback 10.7135 -0.925134 1.4933
upperback 7.31002 -1.45994 -0.718196
thorax 1.56016 -0.814513 -1.45278
lowerneck 6.01718 4.53574 5.08858
upperneck 15.6973 6.43824 -7.80016
head 4.11785 2.88247 -3.13937
rclavicle -8.94531e-015 -9.14409e-015
rhumerus -9.32213 19.453 -81.1974
rradius 70.7263
rwrist -1.64363
rhand -11.638 -5.34415
rfingers 7.12502
rthumb 14.4058 -34.8242
lclavicle -8.94531e-015 -9.14409e-015
lhumerus 18.3578 -36.1132 66.1216
lradius 50.5932
lwrist 27.9647
lhand -10.8179 9.61474
lfingers 7.12502
lthumb 15.1959 39.0367
rfemur -20.5111 2.24912 10.6786
rtibia 27.3195
rfoot -19.4964 -32.4207
rtoes 9.7337
lfemur -11.1123 6.52545 -10.1053
ltibia 13.6706
lfoot -5.06275 12.2622
ltoes -10.4883
2863
root -3.34321 16.7526 -3.22812 529.101 -82.5436 -520.954
lowerback 10.7779 -0.899439 1.46793
upperback 7.36305 -1.43212 -0.727351
thorax 1.5823 -0.802731 -1.45021
lowerneck 5.76682 4.62117 5.16295
upperneck 16.2857 6.54687 -7.7289
head 4.34666 2.91979 -3.12085
rclavicle 9.54166e-015 9.14409e-015
rhumerus -8.73221 19.8013 -80.9227
rradius 71.2089
rwrist -1.49696
rhand -11.7094 -5.25881
rfingers 7.12502
rthumb 14.337 -34.7438
lclavicle 9.54166e-015 9.14409e-015
lhumerus 19.0927 -36.4393 65.5524
lradius 50.8757
lwrist 28.0353
lhand -10.8422 9.6486
lfingers 7.12502
lthumb 15.1725 39.0723
rfemur -20.4964 2.24278 10.6817
rtibia 27.2829
rfoot -19.4056 -32.4305
rtoes 9.68656
lfemur -11.1828 6.51911 -10.0927
ltibia 13.7063
lfoot -4.98512 12.2263
ltoes -10.5553
2864
root -3.32652 16.7531 -3.22888 528.81 -82.5965 -520.7
lowerback 10.8416 -0.875745 1.44589
upperback 7.41096 -1.40631 -0.730844
thorax 1.59947 -0.791884 -1.4434
lowerneck 5.50579 4.70097 5.22437
upperneck 16.8876 6.64503 -7.64949
head 4.58101 2.95122 -3.09765
rclavicle 2.3059e-014 6.75868e-015
rhumerus -8.15661 20.1484 -80.6418
rradius 71.7128
rwrist -1.35756
rhand -11.7901 -5.17723
rfingers 7.12502
rthumb 14.2593 -34.6677
lclavicle 2.3059e-014 6.75868e-015
lhumerus 19.7817 -36.7491 65.0069
lradius 51.1741
lwrist 28.1163
lhand -10.8244 9.70452
lfingers 7.12502
lthumb 15.1896 39.127
rfemur -20.4741 2.23952 10.6935
rtibia 27.2496
rfoot -19.3236 -32.4433
rtoes 9.63524
lfemur -11.2436 6.5047 -10.071
ltibia 13.7384
lfoot -4.90824 12.1968
ltoes -10.6289
2865
root -3.30989 16.7534 -3.23025 528.504 -82.6522 -520.429
lowerback 10.8951 -0.852196 1.4251
upperback 7.44984 -1.37986 -0.731885
thorax 1.61266 -0.780486 -1.43489
lowerneck 5.23284 4.77292 5.28429
upperneck 17.5077 6.73091 -7.56986
head 4.8231 2.97605 -3.07427
rclavicle 1.39149e-014 1.78906e-014
rhumerus -7.60296 20.4829 -80.3633
rradius 72.2356
rwrist -1.21989
rhand -11.874 -5.09013
rfingers 7.12502
rthumb 14.1785 -34.5863
lclavicle 1.39149e-014 1.78906e-014
lhumerus 20.4166 -37.0463 64.4926
lradius 51.4916
lwrist 28.1956
lhand -10.7896 9.77141
lfingers 7.12502
lthumb 15.2232 39.1913
rfemur -20.4555 2.23176 10.7092
rtibia 27.2205
rfoot -19.2513 -32.4543
rtoes 9.57892
lfemur -11.3042 6.4805 -10.0464
ltibia 13.766
lfoot -4.83387 12.1744
ltoes -10.7028
2866
root -3.29328 16.7538 -3.23222 528.18 -82.7123 -520.127
lowerback 10.9264 -0.826886 1.41153
upperback 7.47766 -1.34956 -0.732878
thorax 1.6263 -0.766459 -1.43101
lowerneck 4.94427 4.8341 5.35075
upperneck 18.1471 6.80069 -7.49029
head 5.07409 2.99292 -3.05231
rclavicle 1.23246e-014 1.31198e-014
rhumerus -7.07936 20.79 -80.0943
rradius 72.7802
rwrist -1.07349
rhand -11.9564 -4.99804
rfingers 7.12502
rthumb 14.099 -34.4997
lclavicle 1.23246e-014 1.31198e-014
lhumerus 21.0037 -37.3429 64.0035
lradius 51.8299
lwrist 28.2621
lhand -10.7425 9.84438
lfingers 7.12502
lthumb 15.2685 39.2608
rfemur -20.4528 2.21942 10.729
rtibia 27.1963
rfoot -19.1901 -32.4686
rtoes 9.51959
lfemur -11.3778 6.44166 -10.019
ltibia 13.7908
lfoot -4.76138 12.1641
ltoes -10.7753
2867
root -3.27681 16.7541 -3.23472 527.866 -82.7804 -519.825
lowerback 10.9356 -0.802771 1.39976
upperback 7.49744 -1.31994 -0.733574
thorax 1.64336 -0.752326 -1.42806
lowerneck 4.63532 4.88732 5.40519
upperneck 18.8001 6.85563 -7.39474
head 5.33228 3.00234 -3.02354
rclavicle -1.98785e-015 -1.82882e-014
rhumerus -6.58 21.079 -79.8336
rradius 73.3444
rwrist -0.917825
rhand -12.0276 -4.90922
rfingers 7.12502
rthumb 14.0304 -34.4157
lclavicle -1.98785e-015 -1.82882e-014
lhumerus 21.5356 -37.6249 63.5513
lradius 52.1905
lwrist 28.2828
lhand -10.6732 9.93239
lfingers 7.12502
lthumb 15.3353 39.3438
rfemur -20.463 2.19506 10.7489
rtibia 27.1778
rfoot -19.1476 -32.4801
rtoes 9.47583
lfemur -11.4624 6.38777 -9.99331
ltibia 13.8124
lfoot -4.69543 12.1596
ltoes -10.8162
2868
root -3.2605 16.7543 -3.23786 527.521 -82.8453 -519.478
lowerback 10.92 -0.77978 1.39198
upperback 7.51096 -1.29091 -0.730652
thorax 1.66721 -0.738041 -1.42389
lowerneck 4.29614 4.93699 5.44892
upperneck 19.4703 6.9022 -7.28813
head 5.60125 3.0071 -2.98931
rclavicle -1.74931e-014 2.78299e-015
rhumerus -6.09885 21.3578 -79.5839
rradius 73.9269
rwrist -0.747251
rhand -12.0763 -4.82353
rfingers 7.12502
rthumb 13.9835 -34.3332
lclavicle -1.74931e-014 2.78299e-015
lhumerus 22.0194 -37.8925 63.119
lradius 52.5776
lwrist 28.2455
lhand -10.5903 10.0249
lfingers 7.12502
lthumb 15.4151 39.4302
rfemur -20.4917 2.1654 10.7787
rtibia 27.1659
rfoot -19.1127 -32.4941
rtoes 9.43227
lfemur -11.557 6.32953 -9.95966
ltibia 13.8297
lfoot -4.63303 12.1604
ltoes -10.848
2869
root -3.24456 16.7542 -3.24135 527.149 -82.9265 -519.105
lowerback 10.8911 -0.764746 1.38859
upperback 7.52206 -1.2717 -0.726706
thorax 1.69534 -0.728318 -1.42038
lowerneck 3.92768 4.98452 5.47845
upperneck 20.153 6.94189 -7.16832
head 5.87954 3.00806 -2.94829
rclavicle 7.15625e-015 1.27222e-014
rhumerus -5.63308 21.6309 -79.3413
rradius 74.5257
rwrist -0.570667
rhand -12.1149 -4.74624
rfingers 7.12502
rthumb 13.9462 -34.2585
lclavicle 7.15625e-015 1.27222e-014
lhumerus 22.4599 -38.1541 62.6994
lradius 52.9929
lwrist 28.1367
lhand -10.4985 10.114
lfingers 7.12502
lthumb 15.5035 39.5124
rfemur -20.5196 2.11751 10.8101
rtibia 27.1612
rfoot -19.103 -32.5052
rtoes 9.40681
lfemur -11.6519 6.25245 -9.92567
ltibia 13.8419
lfoot -4.58141 12.1594
ltoes -10.8345
2870
root -3.22918 16.7535 -3.24534 526.835 -83.0045 -518.796
lowerback 10.8598 -0.750247 1.37656
upperback 7.52981 -1.25367 -0.723509
thorax 1.72131 -0.71941 -1.41267
lowerneck 3.5428 5.03067 5.49342
upperneck 20.8348 6.9758 -7.03569
head 6.1611 3.00632 -2.90073
rclavicle -1.55052e-014 -1.90833e-014
rhumerus -5.18873 21.9049 -79.1077
rradius 75.1395
rwrist -0.396994
rhand -12.1537 -4.67442
rfingers 7.12502
rthumb 13.9089 -34.1893
lclavicle -1.55052e-014 -1.90833e-014
lhumerus 22.842 -38.4027 62.3086
lradius 53.4352
lwrist 27.934
lhand -10.3898 10.1785
lfingers 7.12502
lthumb 15.6082 39.5688
rfemur -20.5441 2.06535 10.8377
rtibia 27.1637
rfoot -19.1038 -32.5134
rtoes 9.39365
lfemur -11.7318 6.1759 -9.89554
ltibia 13.8496
lfoot -4.54214 12.1572
ltoes -10.7846
2871
root -3.21455 16.7523 -3.24975 526.567 -83.0756 -518.546
lowerback 10.8294 -0.735256 1.35919
upperback 7.53474 -1.23524 -0.721455
thorax 1.74389 -0.710462 -1.4031
lowerneck 3.13018 5.07625 5.50867
upperneck 21.5286 7.00667 -6.90239
head 6.45323 3.00304 -2.85265
rclavicle 5.1684e-015 -7.95139e-016
rhumerus -4.77111 22.1772 -78.8891
rradius 75.7641
rwrist -0.230177
rhand -12.1981 -4.59199
rfingers 7.12502
rthumb 13.8661 -34.1098
lclavicle 5.1684e-015 -7.95139e-016
lhumerus 23.1676 -38.6474 61.9394
lradius 53.9074
lwrist 27.6554
lhand -10.2662 10.2254
lfingers 7.12502
lthumb 15.7273 39.6064
rfemur -20.5587 2.01143 10.864
rtibia 27.1727
rfoot -19.1084 -32.5171
rtoes 9.37517
lfemur -11.7885 6.11006 -9.8672
ltibia 13.8515
lfoot -4.51464 12.146
ltoes -10.7109
2872
root -3.20057 16.7506 -3.25461 526.329 -83.1338 -518.338
lowerback 10.8024 -0.717533 1.33913
upperback 7.53483 -1.21311 -0.720002
thorax 1.75965 -0.699741 -1.39283
lowerneck 2.71156 5.12094 5.5212
upperneck 22.2138 7.03405 -6.76709
head 6.74569 2.99877 -2.80356
rclavicle 1.27222e-014 4.73108e-014
rhumerus -4.38481 22.4487 -78.6878
rradius 76.3994
rwrist -0.0797891
rhand -12.2521 -4.50695
rfingers 7.12502
rthumb 13.8141 -34.0283
lclavicle 1.27222e-014 4.73108e-014
lhumerus 23.4421 -38.8971 61.585
lradius 54.4098
lwrist 27.3257
lhand -10.1283 10.2553
lfingers 7.12502
lthumb 15.8601 39.6257
rfemur -20.5651 1.97071 10.8927
rtibia 27.1864
rfoot -19.1207 -32.5244
rtoes 9.35867
lfemur -11.8229 6.0601 -9.83592
ltibia 13.8492
lfoot -4.4968 12.1281
ltoes -10.6216
2873
root -3.18711 16.7485 -3.25987 526.118 -83.1802 -518.167
lowerback 10.7812 -0.69824 1.31629
upperback 7.52844 -1.18869 -0.717768
thorax 1.76559 -0.687978 -1.38018
lowerneck 2.28487 5.16614 5.52357
upperneck 22.8929 7.0589 -6.62314
head 7.03934 2.99375 -2.74991
rclavicle -1.59028e-015 7.95139e-016
rhumerus -4.02977 22.7237 -78.5021
rradius 77.042
rwrist 0.0521867
rhand -12.3089 -4.42031
rfingers 7.12502
rthumb 13.7593 -33.9454
lclavicle -1.59028e-015 7.95139e-016
lhumerus 23.6645 -39.1488 61.2505
lradius 54.9399
lwrist 26.9758
lhand -9.98253 10.276
lfingers 7.12502
lthumb 16.0005 39.6352
rfemur -20.562 1.9419 10.9239
rtibia 27.2011
rfoot -19.1383 -32.5349
rtoes 9.34524
lfemur -11.8401 6.03093 -9.80238
ltibia 13.8473
lfoot -4.48305 12.098
ltoes -10.5406
